<?xml version="1.0" encoding="UTF-8"?>
<svg version="1.1" xmlns="http://www.w3.org/2000/svg" width="1563" height="1563">
<path d="M0 0 C213.84 0 427.68 0 648 0 C648 267.96 648 535.92 648 812 C652.29 812 656.58 812 661 812 C661 834.11 661 856.22 661 879 C656.71 879 652.42 879 648 879 C648 925.53 648 972.06 648 1020 C572.67773804 1020.02013078 572.67773804 1020.02013078 549.38026428 1020.02565002 C548.13392282 1020.02594602 548.13392282 1020.02594602 546.86240274 1020.02624801 C518.90606632 1020.03286964 490.94972982 1020.03812177 462.99339294 1020.04234314 C462.08143081 1020.0424812 461.16946868 1020.04261925 460.22987133 1020.04276149 C440.41295973 1020.04575404 420.59604811 1020.04852427 400.77913645 1020.05106533 C391.06166062 1020.05231272 381.3441848 1020.05360927 371.62670898 1020.05493164 C370.65967652 1020.0550624 369.69264406 1020.05519316 368.69630758 1020.05532788 C337.32262569 1020.05959319 305.9489456 1020.06710744 274.5752648 1020.07629722 C242.34872933 1020.08571972 210.12219486 1020.0918831 177.89565804 1020.09391499 C173.34931724 1020.09420317 168.80297645 1020.0945288 164.25663567 1020.09487724 C163.36180473 1020.09494467 162.46697379 1020.09501209 161.54502676 1020.09508156 C147.11049329 1020.09626567 132.67596288 1020.10091016 118.24143066 1020.10683203 C103.74816863 1020.11270476 89.25490964 1020.11497163 74.76164646 1020.11350138 C66.13910489 1020.11273779 57.51657445 1020.11479523 48.89403488 1020.12079754 C43.1452152 1020.12452786 37.39640287 1020.12467756 31.6475827 1020.12183181 C28.36493111 1020.12031185 25.08230515 1020.12097038 21.79965491 1020.12488318 C18.2755797 1020.12884257 14.75156078 1020.12676627 11.22748661 1020.12304783 C10.19210212 1020.12567484 9.15671764 1020.12830186 8.08995786 1020.13100848 C7.16028964 1020.12876118 6.23062142 1020.12651389 5.27278143 1020.1241985 C4.06198184 1020.12443247 4.06198184 1020.12443247 2.82672164 1020.12467116 C1 1020 1 1020 0 1019 C-0.09854954 1016.78245052 -0.12447082 1014.56168187 -0.1241985 1012.34194368 C-0.12547658 1011.63304415 -0.12675467 1010.92414463 -0.12807148 1010.19376329 C-0.13116977 1007.78343745 -0.12704978 1005.37317533 -0.12304783 1002.96285152 C-0.12378653 1001.2238547 -0.12496412 999.48485801 -0.12654433 997.74586174 C-0.12963454 992.92212761 -0.1264208 988.09841432 -0.12226619 983.27468173 C-0.11884991 978.04394086 -0.12119935 972.81320223 -0.12284368 967.58246094 C-0.1249237 958.40005479 -0.12326299 949.21765511 -0.11920547 940.03524971 C-0.11318872 926.38118918 -0.11286797 912.72713276 -0.11374746 899.07307115 C-0.1150637 876.1085874 -0.11171837 853.14410729 -0.10573006 830.17962456 C-0.099812 807.43030216 -0.09595585 784.68098095 -0.09487724 761.93165779 C-0.09484283 761.22572198 -0.09480842 760.51978617 -0.09477296 759.79245837 C-0.09445977 753.34502935 -0.09417208 746.89760033 -0.09391499 740.45017131 C-0.09327551 724.42101752 -0.09231614 708.39186376 -0.09113979 692.36271 C-0.09108648 691.63269578 -0.09103316 690.90268156 -0.09097823 690.1505457 C-0.08835532 654.62062702 -0.0820472 619.09070913 -0.07543945 583.56079102 C-0.07314784 571.22774252 -0.0708725 558.89469402 -0.06866455 546.56164551 C-0.0685276 545.79677139 -0.06839065 545.03189726 -0.06824955 544.24384514 C-0.06190873 508.70519518 -0.05819171 473.16654509 -0.05513173 437.62789472 C-0.05493116 435.30327341 -0.05472886 432.9786521 -0.05452599 430.65403079 C-0.05241266 406.42876364 -0.05042555 382.20349647 -0.04849322 357.9782293 C-0.04843801 357.28613364 -0.04838279 356.59403799 -0.04832591 355.88096974 C-0.04817742 354.01824151 -0.04802922 352.15551328 -0.04788104 350.29278506 C-0.03848748 233.52852189 -0.01841869 116.7642628 0 0 Z M73 73 C73 361.75 73 650.5 73 948 C238.99 948 404.98 948 576 948 C576 925.23 576 902.46 576 879 C485.91 879 395.82 879 303 879 C303 869.43 303 859.86 303 850 C291.45 850 279.9 850 268 850 C268 639.46 268 428.92 268 212 C293.08 212 318.16 212 344 212 C344 221.24 344 230.48 344 240 C355.22 240 366.44 240 378 240 C378 419.19 378 598.38 378 783 C443.34 783 508.68 783 576 783 C576 548.7 576 314.4 576 73 C410.01 73 244.02 73 73 73 Z " fill="#183BB8" transform="translate(457,271)"/>
<path d="M0 0 C11.55 0 23.1 0 35 0 C35 179.19 35 358.38 35 543 C23.45 543 11.9 543 0 543 C0 363.81 0 184.62 0 0 Z " fill="#073770" transform="translate(800,511)"/>
<path d="M0 0 C90.09 0 180.18 0 273 0 C273 9.57 273 19.14 273 29 C182.91 29 92.82 29 0 29 C0 19.43 0 9.86 0 0 Z " fill="#07386F" transform="translate(760,1121)"/>
<path d="M0 0 C11.55 0 23.1 0 35 0 C35 22.11 35 44.22 35 67 C6.95 67 -21.1 67 -50 67 C-50 57.43 -50 47.86 -50 38 C-33.5 38 -17 38 0 38 C0 25.46 0 12.92 0 0 Z " fill="#143AA6" transform="translate(1083,1083)"/>
<path d="M0 0 C4.29 0 8.58 0 13 0 C13 22.11 13 44.22 13 67 C8.71 67 4.42 67 0 67 C0 44.89 0 22.78 0 0 Z " fill="#073870" transform="translate(1105,1083)"/>
</svg>
